<svg t="1652018901567" viewBox="0 0 1024 1024" version="1.1" xmlns="http://www.w3.org/2000/svg" p-id="11705"><path d="M798.875 258.875c-16.875-39.375-39.375-73.125-67.5-101.25S669.5 107 630.125 90.125C590.75 67.625 551.375 62 512 62S433.25 67.625 393.875 84.5c-39.375 16.875-73.125 39.375-101.25 67.5-28.125 33.75-50.625 67.5-67.5 106.875-16.875 39.375-22.5 78.75-22.5 118.125s5.625 78.75 22.5 118.125c16.875 39.375 39.375 73.125 67.5 101.25l185.625 185.625c5.625 11.25 22.5 16.875 33.75 16.875s28.125-5.625 33.75-16.875l185.625-185.625c28.125-28.125 50.625-67.5 67.5-101.25 16.875-39.375 22.5-78.75 22.5-118.125s-5.625-78.75-22.5-118.125z m-106.875 303.75l-168.75 174.375c-5.625 5.625-11.25 5.625-16.875 0L332 562.625C281.375 512 253.25 444.5 253.25 377c0-67.5 28.125-135 73.125-185.625 50.625-50.625 112.5-78.75 180-78.75s135 28.125 180 78.75c50.625 50.625 73.125 112.5 73.125 185.625 11.25 67.5-16.875 135-67.5 185.625z" p-id="11706" fill="#ffffff"></path><path d="M512 242c-78.75 0-140.625 61.875-140.625 140.625S433.25 523.25 512 523.25s140.625-61.875 140.625-140.625S590.75 242 512 242z m0 230.625c-50.625 0-90-39.375-90-90S461.375 298.25 512 298.25s90 39.375 90 90S562.625 472.625 512 472.625zM866.375 753.875c16.875 11.25 39.375 33.75 39.375 67.5s-22.5 50.625-39.375 67.5c-22.5 16.875-50.625 28.125-84.375 39.375-73.125 22.5-168.75 33.75-270 33.75s-196.875-11.25-270-33.75c-33.75-11.25-67.5-22.5-84.375-39.375-16.875-16.875-39.375-39.375-39.375-67.5s22.5-50.625 39.375-67.5c22.5-16.875 50.625-28.125 84.375-39.375l67.5-16.875c16.875 0 33.75 11.25 33.75 28.125 0 11.25-11.25 22.5-22.5 28.125-22.5 5.625-45 11.25-61.875 16.875-73.125 22.5-90 45-90 56.25s16.875 33.75 90 56.25c67.5 22.5 157.5 33.75 253.125 33.75s185.625-11.25 253.125-33.75c73.125-22.5 90-45 90-56.25s-16.875-33.75-90-56.25c-16.875-5.625-39.375-11.25-61.875-16.875-11.25 0-22.5-11.25-22.5-28.125s16.875-28.125 33.75-28.125l67.5 16.875c33.75 11.25 61.875 28.125 84.375 39.375z" p-id="11707" fill="#ffffff"></path></svg>