<svg t="1652018734042"  viewBox="0 0 1153 1024" version="1.1" xmlns="http://www.w3.org/2000/svg" p-id="6001"><path d="M1134.556 216.438c-113.18 170.41-268.1 26.95-513.153-158.247-282.054-170.283-421.097 84.949-436.78 118.301 12.802 51.79 180.908 615.066 180.908 615.066 53.71-192.56 161.64-203.827 337.557-148.517 191.664 59.279 345.686-81.429 392.802-185.135 31.432-66.704 44.811-167.721 57.614-230.457 3.137-11.139-12.803-18.565-19.204-11.139z m-124.127 221.175c-40.715 89.623-174.06 155.24-276.87 123.423-131.745-41.674-254.72-44.81-339.669 11.651-33.288-119.966-75.923-280.838-109.083-401.06a158.632 158.632 0 0 1 67.921-54.35c61.328-26.246 148.325-34.76 224.696 23.11 210.1 159.272 241.085 181.23 328.979 219.127 52.3 22.662 87.958 18.372 123.87 22.341l-9.282 30.024zM27.266 125.371l0.061-0.02q37.09-11.587 48.678 25.503l257.01 822.634q11.587 37.09-25.503 48.677l-0.06 0.02q-37.09 11.587-48.678-25.502L1.764 174.048q-11.588-37.09 25.502-48.677z" p-id="6002" fill="#ffffff"></path></svg>