<svg t="1652019012061" viewBox="0 0 1024 1024" version="1.1" xmlns="http://www.w3.org/2000/svg" p-id="15999"><path d="M200.259209 1023.8452c-28.018745 0-50.774301-22.755556-50.774301-50.722701v-204.3872l-56.19229-68.937466-0.1548-0.257999a51.481219 51.481219 0 0 1-8.978382-29.050744V422.706374c0-28.018745 22.807155-50.774301 50.7743-50.7743h303.665407c27.967145 0.0516 50.671101 22.858755 50.619501 50.8259V670.79869c0 10.37158-3.095994 20.38196-9.029982 28.947543l-0.309599 0.464399-55.934291 68.679466v204.387201c-0.0516 27.967145-22.807155 50.722701-50.774301 50.722701 0-0.1548-172.911262-0.1548-172.911262-0.1548z m161.972084-61.765079v-215.27478l12.229176-14.96397 53.044696-65.273873V433.697153H145.924515v233.076745l53.199496 65.067473 12.229176 15.01557v215.22318h150.878106z m268.990274 57.430688c-38.854724 0-70.485462-31.527538-70.485462-70.279063V74.665054C560.787705 35.91353 592.366843 4.385991 631.118367 4.385991h238.855934c18.730763 0.0516 36.326329 7.430385 49.484303 20.74316 13.209574 13.312774 20.43356 30.95994 20.33036 49.690703v874.411892c-0.0516 38.751524-31.630738 70.279063-70.382262 70.279063h-238.185135z m-8.617183-70.330663c0 4.747191 3.869992 8.617183 8.617183 8.617183h238.236735c4.385991 0 7.997984-3.250794 8.513983-7.481985V74.768254c0-4.747191-3.869992-8.617183-8.617183-8.617183h-238.133535c-4.643991 0-8.617183 3.921592-8.617183 8.617183V222.911565h140.351726c18.421164 0.0516 33.488335 15.11877 33.539934 33.539934 0 18.524364-15.067171 33.539934-33.539934 33.539935h-140.351726v103.251398h87.668229c18.369564 0.0516 33.436735 15.067171 33.539934 33.385135 0 18.524364-15.067171 33.591534-33.539934 33.591534h-87.668229v103.251398h140.351726c18.472764 0.0516 33.488335 15.11877 33.539934 33.539935 0 18.524364-15.067171 33.539934-33.539934 33.539934h-140.351726v103.199799h87.668229c18.421164 0.0516 33.488335 15.11877 33.539934 33.539934 0 18.472764-15.067171 33.488335-33.539934 33.488335h-87.668229v148.40131zM286.74064 324.718166c-92.570219 0-167.906072-72.807458-167.906072-162.333283C118.886168 72.859058 194.222021 0 286.84384 0c92.570219 0 167.906072 72.859058 167.906072 162.436483 0 89.525825-75.335853 162.333283-167.906072 162.333283h-0.1032z m0-262.849887c-58.462686 0-106.037793 45.098312-106.037793 100.568204 0 55.418292 47.575107 100.568204 106.037793 100.568203 58.514286 0 106.089393-45.149912 106.089393-100.619803C392.830033 106.966591 345.254926 61.919879 286.79224 61.919879h-0.0516z" p-id="16000" fill="#ffffff"></path></svg>