<svg t="1652018777085" viewBox="0 0 1024 1024" version="1.1" xmlns="http://www.w3.org/2000/svg" p-id="6751"><path d="M742.4 320V256h51.2a25.6 25.6 0 0 0 25.6-25.6v-102.4a25.6 25.6 0 0 0-25.6-25.6h-563.2a25.6 25.6 0 0 0-25.6 25.6v102.4a25.6 25.6 0 0 0 25.6 25.6h51.2v64a229.888 229.888 0 0 0 113.5616 198.3488A229.888 229.888 0 0 0 281.6 716.8v51.2h-51.2a25.6 25.6 0 0 0-25.6 25.6v102.4a25.6 25.6 0 0 0 25.6 25.6h563.2a25.6 25.6 0 0 0 25.6-25.6v-102.4a25.6 25.6 0 0 0-25.6-25.6h-51.2v-51.2a229.7856 229.7856 0 0 0-113.5616-198.3488A229.888 229.888 0 0 0 742.4 320zM256 153.6h512v51.2H256z m512 716.8H256v-51.2h512zM555.7248 493.568a25.6 25.6 0 0 0-19.2512 26.2144v4.9152a25.6 25.6 0 0 0 1.2288 3.584v0.7168a25.7024 25.7024 0 0 0 1.7408 3.072v0.7168a25.7024 25.7024 0 0 0 2.2528 2.8672 25.6 25.6 0 0 0 2.6624 2.4576 25.3952 25.3952 0 0 0 3.1744 2.048h0.512A25.4976 25.4976 0 0 0 552.96 542.72l1.9456 0.6144A178.7904 178.7904 0 0 1 691.2 716.8v51.2h-358.4v-51.2a178.7904 178.7904 0 0 1 135.3728-174.08H471.04l3.072-1.3312h0.9216a25.3952 25.3952 0 0 0 2.9696-1.9456 25.4976 25.4976 0 0 0 2.4576-2.2528 25.6 25.6 0 0 0 2.2528-2.8672v-0.6144a25.7024 25.7024 0 0 0 1.7408-3.1744v-0.512a25.4976 25.4976 0 0 0 1.7408-6.2464v-2.1504-0.7168-1.7408-1.1264-1.3312-3.9936a25.3952 25.3952 0 0 0-3.6864-7.2704L481.28 501.76l-0.9216-0.9216-0.9216-0.9216a25.4976 25.4976 0 0 0-10.24-5.4272 178.7904 178.7904 0 0 1-135.4752-174.08V256h358.4v64A178.8928 178.8928 0 0 1 555.7248 493.568z" p-id="6752" fill="#ffffff"></path></svg>