<svg t="1652018814107" viewBox="0 0 1024 1024" version="1.1" xmlns="http://www.w3.org/2000/svg" p-id="7623"><path d="M324.274694 505.738476l-131.130762-78.630292c-10.476011-6.381938-24.203198-3.251176-30.10348 7.34525-6.381938 10.476011-3.251176 24.203198 7.345249 30.585136l131.130762 78.630292c10.476011 6.381938 24.203198 3.251176 30.585136-7.826905 6.261524-10.476011 2.649106-24.082785-7.826905-30.103481z m139.800565 460.703669c5.057385 1.324553 10.957667 0.963311 16.496707-2.287865-4.575729 2.76952-10.596425 3.612418-16.496707 2.287865zM324.274694 505.738476l-131.130762-78.630292c-10.476011-6.381938-24.203198-3.251176-30.10348 7.34525-6.381938 10.476011-3.251176 24.203198 7.345249 30.585136l131.130762 78.630292c10.476011 6.381938 24.203198 3.251176 30.585136-7.826905 6.261524-10.476011 2.649106-24.082785-7.826905-30.103481z m0 0l-131.130762-78.630292c-10.476011-6.381938-24.203198-3.251176-30.10348 7.34525-6.381938 10.476011-3.251176 24.203198 7.345249 30.585136l131.130762 78.630292c10.476011 6.381938 24.203198 3.251176 30.585136-7.826905 6.261524-10.476011 2.649106-24.082785-7.826905-30.103481z m0 0l-131.130762-78.630292c-10.476011-6.381938-24.203198-3.251176-30.10348 7.34525-6.381938 10.476011-3.251176 24.203198 7.345249 30.585136l131.130762 78.630292c10.476011 6.381938 24.203198 3.251176 30.585136-7.826905 6.261524-10.476011 2.649106-24.082785-7.826905-30.103481z m0 0l-131.130762-78.630292c-10.476011-6.381938-24.203198-3.251176-30.10348 7.34525-6.381938 10.476011-3.251176 24.203198 7.345249 30.585136l131.130762 78.630292c10.476011 6.381938 24.203198 3.251176 30.585136-7.826905 6.261524-10.476011 2.649106-24.082785-7.826905-30.103481z m0 0l-131.130762-78.630292c-10.476011-6.381938-24.203198-3.251176-30.10348 7.34525-6.381938 10.476011-3.251176 24.203198 7.345249 30.585136l131.130762 78.630292c10.476011 6.381938 24.203198 3.251176 30.585136-7.826905 6.261524-10.476011 2.649106-24.082785-7.826905-30.103481z m156.658514 458.415804c-5.53904 3.251176-11.439323 3.612418-16.496708 2.287865 5.53904 1.324553 11.559737 0.481656 16.496708-2.287865z m338.724365-44.312323c-12.763876 0-22.878645-9.994356-22.878645-22.878646V725.614299c0-6.381938 2.76952-12.28222 7.345249-16.496707l113.791157-108.372531c3.251176-3.251176 5.53904-8.188147 5.53904-13.245531 0-10.476011-8.669802-19.145814-19.145813-19.145814H627.71778c-10.476011 0-19.145814 8.669802-19.145814 19.145814 0 5.057385 1.806209 9.994356 5.900282 13.727187l105.121355 108.733772c4.094073 4.094073 6.381938 9.994356 6.381938 16.015052v126.193791c0 12.763876-9.994356 22.878645-22.878645 22.878645-12.763876 0-22.878645-9.994356-22.878646-22.878645v-117.042333l-98.257761-101.870179c-11.920978-11.920978-18.784572-28.297272-18.784572-45.75729 0-35.642521 29.260583-64.903104 64.903105-64.903105h276.470367c35.642521 0 64.903104 29.260583 64.903104 64.903105 0 17.339605-6.863594 33.836312-19.145814 45.75729L842.89746 735.247413V897.083725c-0.361242 12.643462-10.476011 22.758231-23.239887 22.758232z m56.233302-626.995297c7.345249-4.575729 8.669802-10.476011 9.633114-14.570084 0.963311-8.669802-3.251176-17.821261-12.28222-22.39699L480.09031 59.24365c-6.381938-3.251176-13.727187-3.251176-20.109125 0L66.950141 255.759172c-14.570085 9.633114-12.28222 31.066792-12.28222 32.873001v419.522107c0 7.826905 4.094073 15.05174 10.957667 19.145814 0 0 384.361242 232.158043 391.224835 235.409219 13.245532 6.863594 21.915334 5.057385 28.297272 1.806209l128-74.054562c10.957667-6.381938 14.570085-20.590781 8.188147-31.066793-6.381938-10.957667-20.590781-14.570085-31.066792-8.669802L502.005644 901.900282l-9.151458 5.057385V512.120414l347.755409-197.478834 35.28128-21.79492zM447.578551 512.120414v393.5127L99.341486 695.87206V314.280339l348.237065 197.840075z m22.39699-38.773283L124.507996 277.313264 469.975541 104.519285l345.467545 172.793979-345.467545 196.033867z" p-id="7624" fill="#ffffff"></path></svg>