<svg viewBox="0 0 767 727" fill="none" xmlns="http://www.w3.org/2000/svg">
<path fill-rule="evenodd" clip-rule="evenodd" d="M85.6048 0.67453V599.288C85.6161 610.261 89.9801 620.781 97.7392 628.54C105.498 636.299 116.019 640.663 126.991 640.675H640.271C663.141 640.675 681.658 622.115 681.658 599.288V0.67453H766.991V599.288C766.991 669.176 710.159 726.008 640.271 726.008H126.991C57.1462 726.008 0.271484 669.176 0.271484 599.288V0.667969L85.6048 0.67453ZM255.001 512.666C231.534 512.666 212.334 493.466 212.334 469.999V171.333C212.334 147.866 231.534 128.666 255.001 128.666C278.467 128.666 297.667 147.866 297.667 171.333V469.999C297.667 493.466 278.467 512.666 255.001 512.666ZM511.001 512.666C487.534 512.666 468.334 493.466 468.334 469.999V171.333C468.334 147.866 487.534 128.666 511.001 128.666C534.467 128.666 553.667 147.866 553.667 171.333V469.999C553.667 493.466 534.467 512.666 511.001 512.666Z" fill="#fff"/>
</svg>
