<svg t="1657597453459" viewBox="0 0 1024 1024" version="1.1" xmlns="http://www.w3.org/2000/svg" p-id="757"><path d="M512 1530.18356588c562.03732878-0.74049641 1017.44306945-456.14623712 1018.18356588-1018.18356588-0.74049641-562.03732878-456.14623712-1017.44306945-1018.18356588-1018.18356588-562.03732878 0.74049641-1017.44306945 456.14623712-1018.18356588 1018.18356588 0.74049641 562.03732878 456.14623712 1017.44306945 1018.18356588 1018.18356588z m0 92.56214315C-101.17791174 1622.05149299-598.05149299 1125.17791174-598.74570903 512-598.05149299-101.17791174-101.17791174-598.05149299 512-598.74570903c613.17791174 0.69421609 1110.05149299 497.5677973 1110.74570903 1110.74570903-0.69421609 613.17791174-497.5677973 1110.05149299-1110.74570903 1110.74570903z" fill="#ffffff" p-id="758"></path><path d="M299.61481443 299.9303589a191.51075555 191.51075555 0 0 0 191.43793778 191.51075555h29.51547336V108.51669333h-29.51547336a191.51075555 191.51075555 0 0 0-191.43793778 191.43793778z m109.59075556 516.76349553a191.51075555 191.51075555 0 0 0 70.12352-261.6100022l-14.73346332-25.46195001-331.80634112 191.43793778 14.70919111 25.53476779a191.51075555 191.51075555 0 0 0 261.63427555 70.09924664h0.07281778z m397.51224889-362.58398776a191.51075555 191.51075555 0 0 0-261.53718443 70.12352l-14.70919111 25.51049443 331.63643221 191.51075556 14.70919112-25.51049444a191.51075555 191.51075555 0 0 0-70.09924779-261.63427555z" fill="#ffffff" p-id="759"></path></svg>