<svg t="1652242000922" viewBox="0 0 1024 1024" version="1.1" xmlns="http://www.w3.org/2000/svg" p-id="3884" ><path d="M898.8 422.5c-16.6 0-30 13.4-30 30v383.3c0 18.3-14.9 33.2-33.2 33.2H190.9c-18.3 0-33.2-14.9-33.2-33.2V191.2c0-18.3 14.9-33.2 33.2-33.2h385.2c16.6 0 30-13.4 30-30s-13.4-30-30-30H190.9c-51.4 0-93.2 41.8-93.2 93.2v644.7c0 51.4 41.8 93.2 93.2 93.2h644.7c51.4 0 93.2-41.8 93.2-93.2V452.5c0-16.5-13.5-30-30-30z" p-id="3885" fill="#fff"></path><path d="M381.3 644.2c12.9 12.9 33.7 12.9 46.6 0L916 156.1c12.9-12.9 12.9-33.7 0-46.6-12.9-12.9-33.7-12.9-46.6 0L381.3 597.7c-12.8 12.8-12.8 33.7 0 46.5z" p-id="3886" fill="#fff"></path></svg>