<?xml version="1.0" standalone="no"?><!DOCTYPE svg PUBLIC "-//W3C//DTD SVG 1.1//EN" "http://www.w3.org/Graphics/SVG/1.1/DTD/svg11.dtd"><svg t="1669300372001" class="icon" viewBox="0 0 1024 1024" version="1.1" xmlns="http://www.w3.org/2000/svg" p-id="1961" xmlns:xlink="http://www.w3.org/1999/xlink" width="32" height="32"><path d="M524.8 588.288c-32.256-4.096-57.344-31.744-57.344-65.536s25.088-61.44 57.344-65.536v-112.64c-96.256 6.656-172.544 87.04-172.544 185.344S404.48 696.32 524.8 741.376V588.288z m18.944-286.208v155.648c31.232 5.12 55.296 32.256 55.296 65.024s-24.064 59.904-55.296 65.024v127.488c99.84-3.584 179.2-84.992 179.2-185.344 0.512-100.352-63.488-167.424-179.2-227.84z" p-id="1962" fill="#ffffff"></path><path d="M316.416 695.808c-38.912-50.176-61.44-113.664-58.88-182.272 5.632-144.896 123.392-263.168 268.8-268.8 69.12-2.56 132.608 19.968 182.272 58.88l94.72-94.72c-75.776-65.536-176.128-103.424-284.672-99.84-218.624 8.704-394.24 187.904-398.336 406.016-0.512 36.864 3.584 73.216 12.288 107.52 15.36 60.928 19.456 182.784-43.008 297.984-1.024 2.048 1.536 4.096 3.072 2.56l223.744-227.328z m437.76-347.136c42.496 52.224 66.56 120.32 61.952 194.048-8.704 139.264-121.344 252.416-261.12 261.12-73.728 4.608-141.824-19.456-194.048-61.952l-95.232 95.232c76.288 65.024 175.616 102.912 284.672 98.304 218.112-8.704 393.728-188.928 396.8-407.04 0.512-47.616-6.656-93.184-20.992-135.68-15.872-47.104-11.776-166.4 56.832-268.8 1.536-2.56-1.536-5.12-3.584-3.072l-225.28 227.84z" p-id="1963" fill="#ffffff"></path></svg>