<svg t="1657348737888" viewBox="0 0 1024 1024" version="1.1" xmlns="http://www.w3.org/2000/svg" p-id="10650"><path d="M663.1 863.1c23.1 15.2 54.1 8.9 69.4-14.2 2.9-4.3 5-9.1 6.4-14L925.3 176c10.5-37-10.8-75.5-47.8-86.2-16-4.6-33.1-3.3-48.2 3.7l-702.1 324c-25.2 11.7-36.3 41.6-24.6 66.8 3.9 8.5 10.2 15.8 18 20.9l146.5 96.6c14 9.6 33.1 6 42.7-8.1s6-33.1-8.1-42.7l-0.9-0.6L171.2 465l683.9-315.6c1.7-0.8 3.6-0.9 5.5-0.4 4.4 1.4 6.8 6 5.6 10.4L684 803.2l-130.1-85.8c-17.3-11.4-40.6-7-52.6 9.9L430.2 828V626l269.4-222c13.3-10.6 15.4-30 4.8-43.2-10.6-13.3-30-15.4-43.2-4.8-0.2 0.2-0.4 0.4-0.7 0.5l-277.7 229c-8.9 7.3-14 18.2-14 29.7v285.5c0 21.2 17.2 38.4 38.4 38.4 12.5 0 24.2-6.1 31.4-16.3L538.7 781l124.4 82.1z" p-id="10651" fill="#84ade2"></path></svg>