<svg
      t="1657598803202"
      viewBox="0 0 1024 1024"
      version="1.1"
      xmlns="http://www.w3.org/2000/svg"
      p-id="1347"
    >
      <path
        d="M557.311759 513.248864l265.280473-263.904314c12.54369-12.480043 12.607338-32.704421 0.127295-45.248112-12.512727-12.576374-32.704421-12.607338-45.248112-0.127295L512.127295 467.904421 249.088241 204.063755c-12.447359-12.480043-32.704421-12.54369-45.248112-0.063647-12.512727 12.480043-12.54369 32.735385-0.063647 45.280796l262.975407 263.775299-265.151458 263.744335c-12.54369 12.480043-12.607338 32.704421-0.127295 45.248112 6.239161 6.271845 14.463432 9.440452 22.687703 9.440452 8.160624 0 16.319527-3.103239 22.560409-9.311437l265.216826-263.807983 265.440452 266.240344c6.239161 6.271845 14.432469 9.407768 22.65674 9.407768 8.191587 0 16.352211-3.135923 22.591372-9.34412 12.512727-12.480043 12.54369-32.704421 0.063647-45.248112L557.311759 513.248864z"
        p-id="1348"
        fill="#84ade2"
      ></path>
    </svg>