<svg t="1657597640010" viewBox="0 0 1024 1024" version="1.1" xmlns="http://www.w3.org/2000/svg" p-id="787"><path d="M171.33593725 548.703125c0-0.21093775 0-0.42187475-0.1054685-0.58007787A333.17578125 333.17578125 0 0 1 169.22656275 511.94726537 343.14257813 343.14257813 0 0 1 512 169.22656275a341.71875001 341.71875001 0 0 1 276.96093725 141.960937h-115.8046875l-3.1640625-0.15820313a26.52539037 26.52539037 0 1 0 0 53.10351613c1.05468725 0 2.10937525-0.1054685 3.1640625-0.21093775h147.55078175l0.1054685 0.26367162s57.69140599-0.15820313 57.69140599-0.26367162h0.10546926c-17.98242162-50.625-52.78710912-91.59960938-52.78710988-91.59960938A394.03124975 394.03124975 0 0 0 512 116.4921875C293.94335911 116.4921875 116.4921875 293.89062525 116.4921875 511.94726537c0 11.75976588 0.6328125 23.46679713 1.74023438 34.85742213v1.8984375a26.63085963 26.63085963 0 0 0 53.0507815 0zM906.82226537 497.12890625h-0.52734324a26.63085963 26.63085963 0 0 0-53.10351612 1.265625c0 2.84765625 0.42187475 5.6953125 1.37109424 8.27929713 0.15820313 1.792969 0.21093775 3.53320338 0.210937 5.32617162a343.03710963 343.03710963 0 0 1-342.72070262 342.66796875 342.03515625 342.03515625 0 0 1-264.88476588-126.035156h111.69140625c1.05468725 0.26367162 2.16210912 0.26367162 3.21679713 0.26367162 1.05468725 0 2.16210912 0 3.1640625-0.21093775h1.21289037v-0.26367162a26.4726565 26.4726565 0 0 0 0-52.36523438v-0.10546849h-1.31835963a29.79492213 29.79492213 0 0 0-6.38085887 0H155.35742162s7.06640599 33.48632787 52.73437525 87.80273437C281.28710912 850.76562525 389.60351588 907.5078125 512 907.5078125 730.10937475 907.5078125 907.5078125 730.10937475 907.5078125 512c0-5.0625-0.527344-9.91406225-0.68554713-14.87109375z" fill="#ffffff" p-id="788"></path></svg>